<?xml version="1.0" encoding="utf-8"?>
<!-- Generator: Adobe Illustrator 25.2.1, SVG Export Plug-In . SVG Version: 6.00 Build 0)  -->
<svg version="1.1" id="Layer_1" xmlns="http://www.w3.org/2000/svg" xmlns:xlink="http://www.w3.org/1999/xlink" x="0px" y="0px"
	 viewBox="0 0 300 300" style="enable-background:new 0 0 300 300;" xml:space="preserve">
<g transform="translate(0.000000,300.000000) scale(0.100000,-0.100000)">
	<path d="M657,2980c-109-23-265-98-354-170c-135-108-247-296-283-471c-19-88-20-142-20-839C0,636-1,647,89,466S285,179,466,89
		S636,0,1500,0s853-1,1034,89s287,196,377,377s89,170,89,1034s1,853-89,1034s-196,287-377,377c-182,90-169,89-1039,88
		C803,2999,738,2997,657,2980z M2313,2715c190-49,353-212,402-402c22-85,22-1541,0-1626c-49-190-212-353-402-402
		c-85-22-1541-22-1626,0c-190,49-353,212-402,402c-22,85-22,1541,0,1626c49,188,211,351,398,402C763,2736,2231,2737,2313,2715z"/>
	<path d="M2260,2491c-84-27-135-85-146-165c-21-147,135-259,271-197c137,62,152,254,26,336C2371,2491,2299,2503,2260,2491z"/>
	<path d="M1338,2254c-471-101-735-612-546-1056c212-500,868-627,1253-243c384,385,257,1041-243,1253C1662,2268,1485,2286,1338,2254z
		 M1601,1996c261-56,440-309,400-566c-42-277-302-473-571-431c-220,34-393,204-430,423c-44,256,135,517,393,573
		C1474,2013,1521,2013,1601,1996z"/>
</g>
</svg>
