<?xml version="1.0" encoding="utf-8"?>
<!-- Generator: Adobe Illustrator 25.2.1, SVG Export Plug-In . SVG Version: 6.00 Build 0)  -->
<svg version="1.1" id="Layer_1" xmlns="http://www.w3.org/2000/svg" xmlns:xlink="http://www.w3.org/1999/xlink" x="0px" y="0px"
	 viewBox="0 0 240 240" style="enable-background:new 0 0 240 240;" xml:space="preserve">
<g transform="translate(0.000000,240.000000) scale(0.050000,-0.050000)">
	<path d="M767,4772c-363-88-669-404-745-768C-9,3857-9,943,22,796c78-375,399-696,774-774C943-9,3857-9,4004,22
		c375,78,696,399,774,774c31,147,31,3061,0,3208c-78,375-399,696-774,774C3845,4811,906,4805,767,4772z M1454,4118
		c223-108,254-438,55-590c-164-125-445-58-521,124C858,3963,1157,4262,1454,4118z M1600,2100V1000h-300h-300v1100v1100h300h300V2100
		z M2600,3034v-166l116,113c349,339,949,268,1170-137c103-190,113-287,114-1099v-745h-300h-300v607c0,458-7,629-28,698
		c-109,365-537,404-719,65c-41-76-43-109-49-725l-6-645h-299h-299v1100v1100h300h300V3034z"/>
</g>
</svg>
