<?xml version="1.0" standalone="no"?>
<!DOCTYPE svg PUBLIC "-//W3C//DTD SVG 20010904//EN"
 "http://www.w3.org/TR/2001/REC-SVG-20010904/DTD/svg10.dtd">
<svg version="1.0" xmlns="http://www.w3.org/2000/svg"
 width="300.000000pt" height="303.000000pt" viewBox="0 0 300.000000 303.000000"
 preserveAspectRatio="xMidYMid meet">
<metadata>
Created by potrace 1.10, written by Peter Selinger 2001-2011
</metadata>
<g transform="translate(0.000000,303.000000) scale(0.100000,-0.100000)"
fill="#000000" stroke="none">
<path d="M1365 2629 c-248 -36 -500 -168 -666 -347 -126 -137 -220 -309 -269
-493 -31 -117 -39 -349 -16 -471 148 -788 1023 -1175 1707 -756 103 64 275
232 344 336 186 285 233 650 124 974 -88 266 -288 502 -539 637 -196 105 -464
152 -685 120z m417 -67 c423 -114 730 -443 803 -861 97 -551 -246 -1083 -793
-1232 -99 -27 -330 -37 -440 -19 -225 36 -413 132 -585 299 -439 426 -432
1120 14 1547 148 141 316 230 519 275 118 26 369 21 482 -9z"/>
<path d="M1560 1429 c0 -6 14 -37 31 -69 l32 -57 -37 -62 c-20 -34 -36 -64
-36 -67 0 -2 15 -4 33 -4 30 0 35 4 54 48 l20 47 23 -47 c21 -43 28 -48 57
-48 18 0 33 3 33 6 0 4 -17 34 -37 67 l-37 61 32 57 c39 71 40 79 3 79 -24 0
-31 -7 -49 -47 l-20 -47 -23 47 c-19 39 -28 47 -51 47 -15 0 -28 -5 -28 -11z"/>
<path d="M1790 1434 c0 -4 18 -39 40 -79 33 -60 40 -82 40 -129 0 -56 0 -56
30 -56 30 0 30 0 30 56 0 48 6 68 40 126 22 39 40 74 40 79 0 5 -14 9 -30 9
-22 0 -33 -6 -39 -22 -5 -13 -15 -39 -23 -58 l-14 -35 -27 58 c-23 51 -29 57
-56 57 -17 0 -31 -3 -31 -6z"/>
<path d="M2047 1433 c-11 -10 -8 -154 4 -195 24 -87 168 -92 198 -7 6 18 11
72 11 120 l0 89 -30 0 -30 0 0 -91 c0 -105 -9 -129 -49 -129 -38 0 -51 36 -51
141 0 76 -1 79 -23 79 -13 0 -27 -3 -30 -7z"/>
<path d="M1710 1120 c0 -13 7 -20 20 -20 13 0 20 7 20 20 0 13 -7 20 -20 20
-13 0 -20 -7 -20 -20z"/>
<path d="M1570 960 c0 -93 1 -100 20 -100 18 0 20 7 20 68 0 54 4 72 18 85 10
10 24 17 30 17 7 0 12 7 12 15 0 20 -29 19 -52 -2 -17 -15 -18 -15 -18 0 0 10
-7 17 -15 17 -12 0 -15 -18 -15 -100z"/>
<path d="M1710 960 c0 -93 1 -100 20 -100 19 0 20 7 20 100 0 93 -1 100 -20
100 -19 0 -20 -7 -20 -100z"/>
<path d="M1810 960 c0 -93 1 -100 20 -100 18 0 20 7 20 73 0 81 9 97 52 97 36
0 48 -28 48 -111 0 -46 3 -59 15 -59 22 0 21 147 -1 178 -19 27 -78 30 -106 5
-17 -15 -18 -15 -18 0 0 10 -7 17 -15 17 -12 0 -15 -18 -15 -100z"/>
<path d="M2056 1029 c-30 -35 -34 -84 -11 -128 21 -41 72 -54 116 -31 16 9 19
7 19 -13 0 -40 -32 -60 -85 -55 -32 4 -45 2 -45 -7 0 -34 98 -34 137 -1 27 24
28 27 31 145 3 102 1 121 -11 121 -9 0 -17 -6 -20 -12 -4 -10 -7 -10 -18 0 -7
6 -30 12 -50 12 -29 0 -43 -7 -63 -31z m114 -18 c5 -11 10 -34 10 -51 0 -50
-16 -70 -55 -70 -24 0 -38 6 -45 19 -15 29 -12 87 6 105 22 23 71 20 84 -3z"/>
</g>
</svg>
